<?xml version="1.0" standalone="no"?>
<!DOCTYPE svg PUBLIC "-//W3C//DTD SVG 20010904//EN"
 "http://www.w3.org/TR/2001/REC-SVG-20010904/DTD/svg10.dtd">
<svg version="1.0" xmlns="http://www.w3.org/2000/svg"
 width="182.000000pt" height="313.000000pt" viewBox="0 0 182.000000 313.000000"
 preserveAspectRatio="xMidYMid meet">

<g transform="translate(0.000000,313.000000) scale(0.100000,-0.100000)"
fill="#000000" stroke="none">
<path d="M840 2932 c-83 -6 -125 -14 -106 -22 19 -6 19 -7 -2 -12 -12 -4 -22
-2 -22 3 0 5 -11 9 -25 9 -14 0 -25 -5 -25 -11 0 -5 -4 -8 -9 -4 -6 3 -14 -3
-20 -12 -6 -10 -11 -13 -11 -6 0 15 -27 7 -54 -16 -11 -9 -16 -10 -12 -3 11
19 -8 14 -23 -7 -8 -10 -21 -16 -30 -14 -10 2 -24 -4 -32 -13 -12 -15 -12 -16
0 -9 9 5 12 4 8 -3 -4 -5 -15 -8 -25 -5 -10 2 -24 -3 -31 -11 -8 -9 -19 -16
-27 -16 -20 0 -27 -19 -12 -37 12 -15 11 -15 -10 -2 -21 13 -25 12 -43 -10
-10 -12 -17 -26 -14 -31 2 -4 -8 -18 -23 -31 l-27 -24 24 28 c49 54 3 25 -50
-32 -63 -69 -112 -133 -86 -112 10 8 20 12 22 9 3 -3 -6 -10 -19 -17 -30 -16
-80 -114 -92 -181 -3 -13 -10 -30 -16 -37 -7 -9 -7 -13 0 -13 6 0 9 -7 5 -16
-5 -13 -8 -13 -15 -2 -7 9 -8 7 -5 -9 3 -13 1 -23 -4 -23 -5 0 -7 -14 -5 -30
2 -17 0 -33 -5 -36 -14 -8 -11 -82 4 -87 9 -4 9 -6 -1 -6 -7 -1 -10 -6 -7 -11
4 -6 1 -18 -7 -27 -11 -15 -11 -16 7 -10 19 7 19 6 2 -7 -16 -12 -17 -45 -17
-435 l0 -422 167 1 c93 1 183 1 201 1 l32 -1 0 -360 0 -360 -30 -1 c-16 0 -66
-1 -111 -1 l-80 -1 0 274 c0 151 -2 284 -5 296 -6 22 -12 23 -90 23 l-84 0 0
-385 0 -385 282 2 c267 3 283 4 286 22 3 13 0 16 -10 10 -11 -6 -11 -5 0 8 11
13 13 104 10 447 -2 237 0 431 5 431 4 0 7 -5 7 -11 0 -7 18 -9 50 -6 32 3 48
2 44 -5 -4 -6 4 -8 17 -6 13 2 23 9 21 16 -1 8 2 11 8 7 6 -3 8 -11 5 -16 -4
-5 1 -9 9 -9 8 0 20 9 26 19 13 25 13 41 0 21 -6 -9 -10 -10 -10 -3 0 6 5 15
10 18 10 6 12 92 2 110 -4 5 -9 -1 -13 -15 l-7 -25 -1 28 c-1 26 -3 27 -56 27
-30 0 -55 -4 -55 -9 0 -9 -8 -9 -45 3 -20 7 -20 15 -18 361 1 195 5 360 8 365
4 6 1 18 -7 27 -7 9 -8 14 -2 10 10 -6 26 39 28 78 1 11 4 15 43 65 16 19 22
31 16 27 -9 -6 -11 -3 -7 8 5 11 10 13 19 5 8 -7 18 -3 33 13 12 13 19 27 15
31 -4 4 1 4 10 0 11 -4 25 0 37 11 11 10 24 14 31 9 9 -5 10 -2 5 11 -5 14 -4
16 7 6 11 -8 22 -7 46 5 17 8 29 20 26 25 -4 5 -1 9 4 9 6 0 11 -5 11 -11 0
-7 9 -9 21 -6 16 4 18 3 8 -9 -15 -18 11 -20 30 -1 10 8 12 8 7 0 -11 -19 13
-25 36 -9 28 20 43 21 26 2 -7 -8 -16 -12 -20 -9 -5 2 -8 0 -8 -5 0 -6 7 -13
16 -16 23 -9 24 -8 17 12 -4 9 6 4 21 -13 15 -16 25 -25 23 -20 -3 6 3 11 13
11 10 0 18 -5 17 -11 -1 -5 4 -9 11 -7 8 1 11 -2 7 -8 -5 -8 -11 -7 -21 1 -10
8 -14 8 -14 0 0 -11 10 -14 45 -12 11 0 14 -2 7 -5 -10 -5 -10 -9 0 -22 7 -8
13 -18 12 -21 -1 -12 38 -71 44 -67 4 2 8 -12 9 -31 3 -47 10 -66 24 -57 8 4
8 1 1 -12 -5 -11 -9 -30 -8 -44 1 -14 -2 -31 -7 -37 -6 -9 -5 -13 4 -13 10 0
10 -3 3 -8 -16 -10 -54 -88 -47 -96 4 -3 2 -6 -4 -6 -19 0 -24 -44 -6 -57 9
-7 12 -13 7 -13 -6 0 -15 5 -20 10 -12 12 -44 3 -44 -12 0 -6 8 -4 18 3 14 11
13 10 -2 -9 -20 -23 -32 -30 -21 -12 3 6 1 10 -5 10 -16 0 -61 -36 -54 -43 3
-3 -3 -3 -14 0 -11 2 -23 0 -26 -6 -4 -5 -14 -7 -23 -4 -12 5 -14 3 -8 -6 5
-10 2 -11 -14 -6 -16 5 -21 2 -22 -12 0 -17 -1 -17 -8 0 -7 18 -8 18 -21 1 -9
-11 -10 -15 -2 -10 7 4 12 1 12 -9 0 -9 -4 -13 -10 -10 -6 4 -10 -11 -10 -38
0 -31 5 -47 15 -51 8 -3 15 -13 15 -22 0 -13 10 -15 64 -12 35 1 62 0 59 -4
-2 -5 20 -8 49 -8 29 0 70 -5 90 -11 21 -5 55 -11 77 -13 47 -3 92 -39 72 -59
-10 -10 -11 -8 -5 8 7 18 6 18 -9 6 -9 -7 -14 -17 -11 -22 3 -5 -2 -6 -10 -3
-9 3 -16 1 -16 -6 0 -6 -4 -8 -10 -5 -5 3 -10 2 -10 -4 0 -5 5 -13 10 -16 7
-4 7 -12 0 -24 -5 -10 -6 -21 -2 -25 3 -4 -2 -4 -12 0 -10 4 -13 10 -8 13 6 3
12 12 14 20 4 18 -29 23 -36 5 -3 -7 -12 -11 -21 -8 -10 4 -15 0 -15 -11 0
-10 5 -13 12 -9 7 4 8 3 4 -4 -4 -6 -13 -9 -21 -6 -8 4 -12 11 -8 17 7 11 -6
5 -51 -27 -16 -11 -26 -15 -22 -8 4 7 2 12 -3 12 -6 0 -11 -4 -11 -8 0 -7 -8
-9 -65 -13 -25 -2 -47 -19 -24 -19 7 0 10 -3 7 -6 -4 -3 -16 0 -28 6 -18 9
-24 9 -30 0 -5 -9 -9 -9 -14 -1 -11 16 -26 3 -27 -22 0 -21 -1 -21 -9 -2 -6
14 -9 -6 -8 -62 l1 -81 26 9 c14 6 32 16 41 22 13 11 13 10 0 -6 -13 -17 -12
-19 10 -16 14 1 33 -1 42 -5 9 -4 22 -5 28 -1 5 3 10 1 10 -5 0 -6 5 -8 11 -4
6 3 14 2 18 -3 3 -6 23 -20 44 -31 21 -11 37 -22 37 -24 -1 -1 3 -16 9 -31 7
-18 11 -159 11 -398 0 -253 3 -369 11 -369 5 0 7 -4 4 -10 -4 -7 93 -10 283
-10 l290 0 6 23 c9 32 7 837 -1 837 -5 0 -9 29 -9 65 -2 62 -16 101 -34 90 -5
-3 -11 -1 -15 4 -3 6 3 8 14 6 14 -2 18 1 14 11 -3 7 -8 12 -12 10 -4 -3 -7 8
-6 22 0 19 -7 30 -22 37 -13 5 -23 13 -23 18 0 4 5 5 10 2 17 -10 11 10 -9 33
-10 12 -21 18 -25 15 -4 -4 -4 -1 -1 8 3 9 -5 25 -20 39 -14 13 -25 34 -25 49
0 19 3 22 9 12 7 -11 10 -9 16 8 3 11 4 25 0 31 -4 6 1 7 12 3 10 -3 15 -3 11
2 -4 4 4 23 17 42 13 20 21 42 18 51 -4 10 -2 13 5 8 8 -5 12 0 12 14 0 14 -4
19 -12 14 -8 -4 -10 -3 -5 2 5 5 14 9 20 9 5 0 12 6 15 14 3 9 0 11 -9 6 -8
-5 -6 1 4 13 11 11 16 25 13 31 -4 5 -1 13 5 16 5 4 8 13 5 21 -3 7 0 16 6 20
7 4 6 9 -3 15 -12 7 -12 9 0 9 7 0 11 6 7 15 -3 8 -1 15 5 15 5 0 8 19 5 45
-2 25 0 45 5 45 5 0 9 21 9 46 0 25 -3 43 -8 40 -4 -2 -7 20 -8 51 0 36 -5 57
-14 64 -11 6 -12 9 -2 9 8 0 10 5 5 12 -4 7 -7 22 -8 33 0 11 -6 19 -12 18 -7
-2 -13 2 -13 7 0 6 5 10 12 10 6 0 3 10 -8 22 -10 12 -13 18 -5 13 9 -5 12 -3
9 6 -3 8 -10 14 -15 14 -6 0 -15 4 -20 9 -4 5 -3 6 4 2 8 -4 11 1 10 13 0 11
-5 17 -11 14 -5 -4 -7 1 -3 9 3 9 -5 31 -18 51 -13 19 -21 37 -18 41 4 3 1 6
-5 6 -7 0 -12 -5 -12 -12 0 -15 -15 0 -15 15 -1 7 -6 11 -13 9 -9 -1 -9 3 0
18 9 14 10 23 3 28 -6 4 -23 26 -38 50 -15 23 -32 40 -37 37 -6 -4 -10 -8 -10
-11 0 -3 4 -3 9 1 5 3 12 1 15 -4 4 -5 -1 -8 -11 -7 -9 2 -17 13 -18 25 -1 12
-8 27 -15 34 -8 8 -11 8 -7 1 9 -16 -19 -39 -28 -24 -4 6 -3 9 2 8 9 -3 13 5
13 27 0 8 -5 15 -11 15 -6 0 -8 -7 -5 -16 3 -8 2 -12 -4 -9 -6 3 -10 12 -10
18 -1 21 -37 61 -44 49 -4 -6 -13 -9 -22 -5 -12 4 -12 8 -2 21 8 10 8 13 2 9
-7 -4 -15 0 -18 9 -3 8 -10 13 -14 10 -5 -3 -16 4 -26 15 -10 12 -24 18 -32
15 -8 -3 -13 -2 -10 3 3 5 -1 11 -9 15 -8 3 -17 1 -20 -4 -4 -6 -12 -10 -18
-9 -9 0 -9 2 0 6 10 3 10 8 -1 19 -18 17 -30 19 -20 2 4 -7 -7 -2 -24 11 -22
15 -32 18 -32 9 0 -10 -3 -9 -10 2 -5 8 -12 11 -16 7 -4 -4 -12 0 -18 8 -6 8
-29 16 -51 19 -22 2 -48 7 -58 11 -9 4 -24 2 -32 -5 -12 -10 -15 -10 -15 0 0
8 -8 10 -25 6 -14 -4 -25 -2 -25 3 0 5 -10 8 -22 7 -13 0 -39 -2 -58 -4z
m-233 -98 c-3 -3 -12 -4 -19 -1 -8 3 -5 6 6 6 11 1 17 -2 13 -5z m-200 -70
c-3 -3 -12 -4 -19 -1 -8 3 -5 6 6 6 11 1 17 -2 13 -5z m322 -11 c-13 -17 -13
-17 13 0 29 18 42 22 35 10 -3 -5 43 -6 101 -3 59 3 111 2 117 -2 14 -12 43
-9 48 5 3 7 6 4 6 -6 1 -11 6 -15 12 -11 6 3 14 1 18 -5 4 -6 26 -12 48 -14
23 -1 39 -5 37 -9 -6 -9 32 -29 40 -21 3 3 6 1 6 -6 0 -7 5 -9 10 -6 6 3 10 0
10 -7 0 -9 3 -9 10 2 8 13 10 13 10 -2 0 -9 5 -20 12 -24 8 -5 9 -2 5 10 -4
10 -3 15 3 11 6 -3 10 -13 10 -22 0 -9 3 -14 6 -11 3 4 14 -2 25 -13 11 -11
24 -17 29 -14 5 3 12 0 16 -6 5 -8 2 -10 -7 -5 -8 4 -3 -1 11 -12 18 -15 27
-17 33 -9 5 7 6 4 3 -9 -7 -23 23 -57 45 -51 8 2 10 2 6 -1 -4 -2 -3 -10 4
-18 6 -8 8 -14 4 -14 -4 0 -2 -7 5 -15 7 -8 16 -12 21 -10 4 3 13 -5 20 -17
12 -22 11 -22 -6 -8 -17 14 -17 14 -7 -7 7 -12 17 -25 24 -29 7 -5 8 -3 3 6
-5 8 -4 11 3 7 5 -4 8 -16 5 -26 -3 -13 2 -24 16 -33 22 -14 30 -34 9 -23 -7
4 -3 -2 10 -13 22 -20 31 -39 13 -28 -13 8 -1 -36 15 -54 15 -18 15 -331 0
-364 -6 -13 -6 -17 1 -13 6 4 8 -4 5 -21 -5 -24 -6 -24 -13 -7 -8 20 -8 20 -8
0 -1 -11 -8 -33 -16 -49 -14 -27 -14 -28 2 -15 15 12 16 12 8 -1 -5 -8 -17
-21 -28 -29 -11 -8 -17 -21 -14 -32 3 -10 0 -17 -6 -16 -6 1 -12 -7 -14 -18
-3 -17 -2 -18 7 -5 10 13 11 13 7 0 -2 -8 -10 -14 -17 -12 -7 2 -19 -7 -27
-18 -11 -15 -18 -19 -26 -11 -7 7 -15 7 -26 -2 -12 -10 -13 -9 -6 2 6 11 4 13
-9 8 -14 -5 -17 -3 -12 8 7 18 -5 20 -23 3 -7 -7 -12 -8 -11 -3 5 22 -1 29
-10 15 -8 -13 -10 -12 -10 3 0 19 -20 24 -20 5 0 -7 -5 -5 -11 5 -6 9 -14 15
-19 12 -5 -3 -11 -1 -15 4 -3 6 -11 8 -18 5 -7 -2 -18 6 -26 18 -13 21 -13 22
1 10 14 -11 19 -8 38 18 12 16 18 34 15 40 -4 6 1 7 11 3 12 -4 15 -3 10 5 -4
7 -2 12 4 12 6 0 8 5 5 10 -3 6 -2 10 3 10 6 0 17 20 26 45 8 25 11 43 5 40
-15 -10 -11 7 7 26 17 19 23 134 11 194 -3 17 -8 38 -10 47 -2 10 -6 20 -9 24
-4 3 -4 13 -1 22 5 11 2 14 -10 9 -9 -3 -17 -2 -17 3 0 6 5 10 11 10 5 0 7 5
4 10 -4 6 -11 7 -17 4 -7 -4 -8 -2 -4 4 7 11 -5 41 -28 70 -10 13 -34 38 -109
109 l-28 27 5 -27 c3 -16 1 -25 -5 -22 -5 4 -7 10 -4 15 3 5 -6 12 -20 16 -14
3 -25 10 -25 15 0 6 9 5 20 -1 12 -6 20 -7 20 -1 0 5 -17 15 -37 22 -21 6 -43
15 -49 20 -6 5 -25 10 -43 11 -18 1 -35 6 -37 10 -3 4 -43 8 -89 8 -72 0 -84
-3 -89 -18 -3 -10 -15 -18 -25 -18 -11 0 -17 4 -14 9 9 16 -41 -4 -54 -21 -7
-9 -13 -13 -13 -9 0 4 -22 -4 -50 -18 -27 -14 -50 -29 -50 -33 0 -4 -13 -14
-29 -24 -37 -21 -83 -90 -67 -100 7 -5 5 -8 -6 -8 -16 0 -42 -33 -43 -55 -1
-5 -6 -20 -13 -31 -6 -12 -9 -24 -5 -27 3 -4 0 -13 -7 -22 -9 -11 -9 -15 -1
-15 8 0 7 -7 -3 -22 -14 -19 -16 -74 -16 -400 l0 -378 -105 0 c-73 0 -105 -4
-105 -12 0 -6 -2 -9 -5 -6 -6 6 -7 799 0 843 2 16 -1 35 -7 42 -8 10 -7 12 6
7 9 -3 16 -1 16 5 0 6 -4 11 -8 11 -10 0 -9 46 1 56 4 5 5 1 2 -8 -4 -9 -1
-19 6 -24 7 -4 10 -3 5 4 -3 6 -2 13 4 17 6 4 8 11 5 16 -4 5 -1 9 5 9 7 0 9
7 6 16 -3 8 -2 12 4 9 9 -5 15 15 11 38 0 4 4 7 10 7 5 0 7 5 4 10 -3 6 -1 10
6 10 7 0 5 8 -7 22 -10 12 -14 18 -7 15 6 -4 13 -4 16 0 2 5 2 3 1 -4 -2 -7 3
-10 11 -6 11 4 12 10 5 24 -8 14 -7 17 3 13 11 -4 57 37 57 51 0 2 16 20 36
39 22 21 33 40 28 47 -5 8 -3 9 6 4 8 -5 17 -2 24 7 6 8 15 15 21 16 5 0 11 6
13 14 3 11 2 11 -6 0 -7 -11 -11 -10 -20 1 -9 10 -5 13 21 13 20 -1 31 4 30
11 -2 8 4 10 14 6 11 -4 14 -3 9 5 -5 8 -1 10 10 5 11 -4 23 2 36 18 11 13 17
18 13 12 -8 -17 3 -16 20 1 8 7 11 17 7 21 -4 4 3 2 16 -4 20 -10 23 -9 32 11
5 13 9 17 9 10 1 -16 38 -7 61 14 20 19 25 17 9 -3z m-497 -140 c-6 -2 -10 -8
-8 -12 3 -4 -1 -8 -9 -8 -11 0 -12 4 -4 14 6 7 17 13 23 12 7 0 6 -2 -2 -6z
m198 -3 c0 -5 -2 -10 -4 -10 -3 0 -8 5 -11 10 -3 6 -1 10 4 10 6 0 11 -4 11
-10z m-233 -52 c-3 -8 -6 -5 -6 6 -1 11 2 17 5 13 3 -3 4 -12 1 -19z m1303
-68 c1 10 4 9 10 -5 11 -26 12 -44 1 -27 -4 7 -17 15 -27 16 -10 2 -18 6 -16
9 1 4 2 12 2 19 0 6 7 3 15 -8 11 -15 15 -16 15 -4z m160 -24 c0 -2 -7 -7 -16
-10 -8 -3 -12 -2 -9 4 6 10 25 14 25 6z m21 -38 c11 -21 11 -22 -4 -9 -10 7
-17 17 -17 22 0 15 9 10 21 -13z m-1031 -5 c0 -3 -6 -3 -14 0 -7 3 -19 0 -25
-6 -8 -8 -11 -8 -11 0 0 6 6 13 13 16 13 4 37 -2 37 -10z m-91 -46 c-2 -1 -13
-9 -24 -17 -19 -14 -19 -14 -6 3 7 9 18 17 24 17 6 0 8 -1 6 -3z m685 -13 c5
-14 4 -15 -9 -4 -17 14 -19 20 -6 20 5 0 12 -7 15 -16z m-727 -46 c-3 -8 -6
-5 -6 6 -1 11 2 17 5 13 3 -3 4 -12 1 -19z m173 -23 c0 -12 -19 -12 -23 0 -4
9 -1 12 9 8 7 -3 14 -7 14 -8z m-219 -51 c-5 -16 -10 -21 -10 -12 -1 18 10 51
15 45 2 -1 -1 -16 -5 -33z m1116 14 c-3 -8 -6 -5 -6 6 -1 11 2 17 5 13 3 -3 4
-12 1 -19z m-409 -26 c-4 -2 -3 -13 3 -25 10 -21 9 -21 -5 -3 -9 10 -13 22
-11 27 3 4 1 10 -5 14 -5 3 -10 10 -10 16 0 5 8 1 18 -8 10 -10 14 -19 10 -21z
m-577 -25 c-10 -9 -11 -8 -5 6 3 10 9 15 12 12 3 -3 0 -11 -7 -18z m-142 -30
c8 -10 7 -14 -4 -14 -8 0 -12 4 -9 8 2 4 -2 10 -8 12 -8 4 -9 6 -2 6 6 1 17
-5 23 -12z m733 -279 c-7 -7 -12 -8 -12 -2 0 14 12 26 19 19 2 -3 -1 -11 -7
-17z m488 -229 c-7 -11 -14 -19 -16 -16 -7 7 7 37 17 37 6 0 5 -9 -1 -21z
m-773 -41 c-3 -7 -5 -2 -5 12 0 14 2 19 5 13 2 -7 2 -19 0 -25z m603 7 c0 -2
-9 -9 -20 -15 -12 -6 -20 -7 -20 -1 0 5 8 12 18 14 9 3 18 5 20 6 1 0 2 -1 2
-4z m-353 -71 c-3 -3 -12 -4 -19 -1 -8 3 -5 6 6 6 11 1 17 -2 13 -5z m488 -86
c5 -4 0 -6 -12 -6 -13 1 -19 7 -16 15 3 8 8 10 12 6 3 -4 10 -11 16 -15z
m-130 -58 c3 -6 -1 -7 -9 -4 -18 7 -21 14 -7 14 6 0 13 -4 16 -10z m-3 -24 c7
4 8 2 4 -5 -8 -12 41 -71 60 -71 6 0 11 -7 11 -15 0 -12 -3 -12 -16 -2 -14 11
-14 10 -2 -6 8 -10 17 -28 19 -40 3 -12 7 -199 9 -414 l4 -393 -106 -1 c-58
-1 -114 -2 -126 -2 -21 -1 -21 0 -19 297 0 213 -2 302 -11 312 -9 11 -9 14 0
14 7 0 9 5 6 10 -4 6 -11 8 -16 5 -5 -4 -9 -1 -9 4 0 6 5 11 11 11 5 0 7 5 4
10 -4 6 -12 7 -18 3 -7 -4 -6 0 2 10 12 15 10 18 -10 26 -13 5 -18 10 -11 10
18 1 15 18 -9 40 -12 11 -30 18 -40 16 -11 -2 -17 0 -14 6 4 5 11 7 16 4 5 -4
9 -1 9 4 0 6 -6 11 -13 11 -8 0 -14 7 -14 15 0 8 3 13 5 10 3 -3 14 3 24 12
13 12 18 13 16 4 -2 -7 3 -16 11 -19 8 -3 11 0 7 7 -5 7 -1 9 8 5 12 -4 16 0
17 17 0 13 3 18 6 11 2 -6 10 -9 16 -5 7 4 14 8 17 9 27 5 39 18 30 29 -14 16
13 28 28 13 8 -8 14 -4 21 14 5 15 16 30 23 34 10 6 10 4 -1 -9 -12 -15 -12
-17 2 -11 8 3 19 13 22 22 5 12 9 13 12 4 3 -6 10 -9 15 -6z m202 -24 c3 -5
-1 -9 -9 -9 -8 0 -12 4 -9 9 3 4 7 8 9 8 2 0 6 -4 9 -8z m-139 -32 c3 -6 -1
-7 -9 -4 -18 7 -21 14 -7 14 6 0 13 -4 16 -10z m-495 -4 c0 -2 -9 -6 -20 -9
-11 -3 -18 -1 -14 4 5 9 34 13 34 5z m-697 -23 c-7 -2 -21 -2 -30 0 -10 3 -4
5 12 5 17 0 24 -2 18 -5z m227 -123 c0 -5 -2 -10 -4 -10 -3 0 -8 5 -11 10 -3
6 -1 10 4 10 6 0 11 -4 11 -10z m585 -99 c-2 -9 -4 -23 -4 -31 -1 -9 -7 -5
-15 10 -15 28 -13 37 7 37 8 0 13 -7 12 -16z"/>
<path d="M1255 1260 c-3 -5 -1 -10 4 -10 6 0 11 5 11 10 0 6 -2 10 -4 10 -3 0
-8 -4 -11 -10z"/>
<path d="M1625 2520 c3 -5 8 -10 11 -10 2 0 4 5 4 10 0 6 -5 10 -11 10 -5 0
-7 -4 -4 -10z"/>
<path d="M890 1581 c0 -6 5 -13 10 -16 6 -3 10 1 10 9 0 9 -4 16 -10 16 -5 0
-10 -4 -10 -9z"/>
</g>
</svg>
